HIERARCHY
ROOT Hips
{
	OFFSET 0.000000 0.000000 0.000000
	CHANNELS 6 Xposition Yposition Zposition Xrotation Yrotation Zrotation
	JOINT Spine
	{
		OFFSET 0.000000 0.053497 0.080245
		CHANNELS 3 Xrotation Yrotation Zrotation
		JOINT Spine1
		{
			OFFSET 0.000000 0.018579 0.105368
			CHANNELS 3 Xrotation Yrotation Zrotation
			JOINT Spine2
			{
				OFFSET 0.000000 0.009325 0.106586
				CHANNELS 3 Xrotation Yrotation Zrotation
				JOINT Spine3
				{
					OFFSET 0.000000 0.000000 0.106993
					CHANNELS 3 Xrotation Yrotation Zrotation
					JOINT Neck
					{
						OFFSET 0.000000 -0.040122 0.280858
						CHANNELS 3 Xrotation Yrotation Zrotation
						JOINT Head
						{
							OFFSET 0.000000 -0.025546 0.144881
							CHANNELS 3 Xrotation Yrotation Zrotation
							End Site
							{
								OFFSET 0.000000 0.000000 0.000000
							}
						}
					}
					JOINT RightShoulder
					{
						OFFSET -0.032541 -0.054234 0.175720
						CHANNELS 3 Xrotation Yrotation Zrotation
						JOINT RightArm
						{
							OFFSET -0.161619 0.000000 0.000000
							CHANNELS 3 Xrotation Yrotation Zrotation
							JOINT RightForeArm
							{
								OFFSET -0.257104 0.000000 0.000000
								CHANNELS 3 Xrotation Yrotation Zrotation
								JOINT RightHand
								{
									OFFSET -0.273485 0.000000 0.000000
									CHANNELS 3 Xrotation Yrotation Zrotation
									JOINT RightHandEnd
									{
										OFFSET -0.070844 0.000000 0.000000
										CHANNELS 3 Xrotation Yrotation Zrotation
										End Site
										{
											OFFSET 0.000000 0.000000 0.000000
										}
									}
									JOINT RightHandThumb1
									{
										OFFSET -0.028338 -0.047230 -0.018892
										CHANNELS 3 Xrotation Yrotation Zrotation
										End Site
										{
											OFFSET 0.000000 0.000000 0.000000
										}
									}
								}
							}
						}
					}
					JOINT LeftShoulder
					{
						OFFSET 0.032541 -0.054234 0.175720
						CHANNELS 3 Xrotation Yrotation Zrotation
						JOINT LeftArm
						{
							OFFSET 0.161619 0.000000 0.000000
							CHANNELS 3 Xrotation Yrotation Zrotation
							JOINT LeftForeArm
							{
								OFFSET 0.257104 0.000000 0.000000
								CHANNELS 3 Xrotation Yrotation Zrotation
								JOINT LeftHand
								{
									OFFSET 0.273485 0.000000 0.000000
									CHANNELS 3 Xrotation Yrotation Zrotation
									JOINT LeftHandEnd
									{
										OFFSET 0.070844 0.000000 0.000000
										CHANNELS 3 Xrotation Yrotation Zrotation
										End Site
										{
											OFFSET 0.000000 0.000000 0.000000
										}
									}
									JOINT LeftHandThumb1
									{
										OFFSET 0.028338 -0.047230 -0.018892
										CHANNELS 3 Xrotation Yrotation Zrotation
										End Site
										{
											OFFSET 0.000000 0.000000 0.000000
										}
									}
								}
							}
						}
					}
				}
			}
		}
	}
	JOINT RightUpLeg
	{
		OFFSET -0.096537 0.000000 -0.028202
		CHANNELS 3 Xrotation Yrotation Zrotation
		JOINT RightLeg
		{
			OFFSET 0.000000 0.000000 -0.431842
			CHANNELS 3 Xrotation Yrotation Zrotation
			JOINT RightFoot
			{
				OFFSET 0.000000 0.000000 -0.456398
				CHANNELS 3 Xrotation Yrotation Zrotation
				JOINT RightToeBase
				{
					OFFSET 0.000000 -0.128905 -0.046918
					CHANNELS 3 Xrotation Yrotation Zrotation
					End Site
					{
						OFFSET 0.000000 0.000000 0.000000
					}
				}
			}
		}
	}
	JOINT LeftUpLeg
	{
		OFFSET 0.096537 0.000000 -0.028202
		CHANNELS 3 Xrotation Yrotation Zrotation
		JOINT LeftLeg
		{
			OFFSET 0.000000 0.000000 -0.431842
			CHANNELS 3 Xrotation Yrotation Zrotation
			JOINT LeftFoot
			{
				OFFSET 0.000000 0.000000 -0.456398
				CHANNELS 3 Xrotation Yrotation Zrotation
				JOINT LeftToeBase
				{
					OFFSET 0.000000 -0.128905 -0.046918
					CHANNELS 3 Xrotation Yrotation Zrotation
					End Site
					{
						OFFSET 0.000000 0.000000 0.000000
					}
				}
			}
		}
	}
}
MOTION
Frames: 12
Frame Time: 0.033333
0.335559 1.657825 0.951271 -4.103900 -3.527000 -5.592800 2.282200 4.890200 -0.483200 1.090500 0.624000 0.046500 4.415200 -1.231700 -0.292100 0.831400 -0.552400 0.563300 -3.721200 -1.333900 -0.527500 -3.136000 0.730100 0.963700 1.801600 -7.773100 10.510400 43.363900 -50.984600 42.302400 0.000000 0.000000 19.984500 -5.835200 0.178300 -2.171800 0.000000 0.000000 0.000000 0.000000 0.000000 0.000000 2.727900 13.710800 -14.401600 38.436500 43.300700 -37.763500 0.000000 0.000000 -19.272100 -17.522900 -5.314300 5.203400 0.000000 0.000000 0.000000 0.000000 0.000000 0.000000 -6.387900 13.540300 -15.619900 21.663200 0.000000 0.000000 -9.412000 -6.517000 -8.011700 -0.171700 0.000000 0.000000 -5.779100 3.729800 6.259200 15.156700 0.000000 0.000000 -12.466600 20.204300 13.997900 11.080500 0.000000 0.000000 
0.335371 1.657025 0.951192 -4.003600 -3.533000 -5.533700 2.320800 4.908400 -0.489600 1.117300 0.623000 0.047200 4.424100 -1.215000 -0.268300 0.824500 -0.556200 0.563900 -4.063200 -1.318300 -0.531400 -3.071400 0.635200 0.965000 2.285500 -7.567200 10.247600 46.201300 -53.014600 43.976300 0.000000 0.000000 13.561500 -3.557800 -2.898900 -5.067200 0.000000 0.000000 0.000000 0.000000 0.000000 0.000000 3.092600 13.311000 -14.082500 43.857100 45.667500 -41.568800 0.000000 0.000000 -12.110700 -16.501900 -1.443600 9.017200 0.000000 0.000000 0.000000 0.000000 0.000000 0.000000 -6.448800 13.539500 -15.645100 21.716200 0.000000 0.000000 -9.472300 -6.522300 -8.041300 -0.182900 0.000000 0.000000 -5.896300 3.718100 6.237900 15.276800 0.000000 0.000000 -12.534000 20.171200 13.960500 11.099500 0.000000 0.000000 
0.335219 1.655872 0.951245 -3.888800 -3.548200 -5.404100 2.348200 4.925100 -0.498000 1.130000 0.637600 0.047900 4.449800 -1.205600 -0.303700 0.816100 -0.560300 0.549200 -4.400500 -1.317600 -0.534200 -3.007900 0.592000 0.966300 2.978600 -7.081000 9.578700 47.030900 -56.260100 43.554100 0.000000 0.000000 9.774800 -0.681300 -5.004900 -8.085300 0.000000 0.000000 0.000000 0.000000 0.000000 0.000000 3.699700 12.620000 -13.328800 46.924400 49.713400 -43.524400 0.000000 0.000000 -7.276800 -14.000300 1.033200 12.667400 0.000000 0.000000 0.000000 0.000000 0.000000 0.000000 -6.431500 13.529600 -15.697600 21.672000 0.000000 0.000000 -9.527100 -6.490900 -8.126200 -0.120000 0.000000 0.000000 -5.941300 3.717800 6.238700 15.267600 0.000000 0.000000 -12.522900 20.170200 13.817000 11.136200 0.000000 0.000000 
0.335123 1.654523 0.951433 -3.745800 -3.581200 -5.287700 2.329300 4.943800 -0.496100 1.125100 0.654100 0.047900 4.493900 -1.196300 -0.328800 0.797500 -0.563600 0.542200 -4.650200 -1.311400 -0.529300 -2.931100 0.662900 0.946100 3.773800 -6.535900 8.627700 46.651700 -59.506200 41.441400 0.000000 0.000000 8.428800 0.788500 -6.081900 -10.408100 0.000000 0.000000 0.000000 0.000000 0.000000 0.000000 4.528400 11.875600 -12.179300 48.055100 54.432600 -43.429500 0.000000 0.000000 -4.975200 -11.953300 1.863600 15.153900 0.000000 0.000000 0.000000 0.000000 0.000000 0.000000 -6.400000 13.516300 -15.696100 21.553200 0.000000 0.000000 -9.593300 -6.457500 -8.266200 -0.119700 0.000000 0.000000 -5.910100 3.735400 6.317500 15.086300 0.000000 0.000000 -12.446700 20.184900 13.614200 11.135400 0.000000 0.000000 
0.335097 1.653207 0.951682 -3.596600 -3.642800 -5.220100 2.285100 4.974900 -0.485800 1.105700 0.659300 0.050600 4.538500 -1.170700 -0.292700 0.774700 -0.565200 0.549200 -4.757500 -1.295500 -0.512900 -2.885000 0.766100 0.918000 4.579100 -6.055300 7.630500 45.940300 -62.043600 38.515000 0.000000 0.000000 8.727400 0.031400 -6.411400 -11.029000 0.000000 0.000000 0.000000 0.000000 0.000000 0.000000 5.466700 11.184100 -10.922300 47.826500 58.918400 -41.497700 0.000000 0.000000 -4.745200 -11.620400 2.025600 15.700400 0.000000 0.000000 0.000000 0.000000 0.000000 0.000000 -6.397000 13.528800 -15.633600 21.437200 0.000000 0.000000 -9.688700 -6.382600 -8.397500 -0.440700 0.000000 0.000000 -5.820800 3.788600 6.436700 14.778400 0.000000 0.000000 -12.340300 20.207700 13.430800 10.955400 0.000000 0.000000 
0.335089 1.652039 0.951911 -3.477500 -3.722200 -5.156100 2.237200 5.016000 -0.475400 1.082100 0.659500 0.055800 4.575400 -1.132600 -0.215500 0.761800 -0.569100 0.563700 -4.703700 -1.269700 -0.498400 -2.916300 0.783000 0.881700 5.347400 -5.582600 6.759500 45.102600 -64.027100 35.415300 0.000000 0.000000 9.796700 -2.079200 -6.315800 -9.980800 0.000000 0.000000 0.000000 0.000000 0.000000 0.000000 6.446900 10.471400 -9.776200 46.735300 62.737300 -38.542500 0.000000 0.000000 -5.637400 -13.169800 2.182200 14.656400 0.000000 0.000000 0.000000 0.000000 0.000000 0.000000 -6.402200 13.569300 -15.575600 21.376200 0.000000 0.000000 -9.805700 -6.186900 -8.475500 -1.152600 0.000000 0.000000 -5.705100 3.868000 6.514600 14.455800 0.000000 0.000000 -12.246800 20.254400 13.290900 10.574100 0.000000 0.000000 
0.335072 1.651081 0.952078 -3.421200 -3.801100 -5.071500 2.208100 5.048300 -0.464500 1.068200 0.664100 0.062800 4.599400 -1.088300 -0.124000 0.759700 -0.582400 0.587400 -4.535400 -1.225400 -0.512200 -2.991300 0.740600 0.800400 6.045400 -5.037300 6.053300 43.978400 -65.773700 32.489400 0.000000 0.000000 11.005400 -4.235000 -6.029500 -8.425400 0.000000 0.000000 0.000000 0.000000 0.000000 0.000000 7.350800 9.714000 -8.800100 45.024400 65.869500 -35.293900 0.000000 0.000000 -6.749700 -15.695500 2.274900 13.219500 0.000000 0.000000 0.000000 0.000000 0.000000 0.000000 -6.381300 13.618900 -15.522300 21.380800 0.000000 0.000000 -9.962400 -5.939000 -8.562900 -2.057800 0.000000 0.000000 -5.580400 3.956400 6.518900 14.217100 0.000000 0.000000 -12.224000 20.276600 13.207300 10.137200 0.000000 0.000000 
0.335031 1.650497 0.952155 -3.422400 -3.850900 -4.976400 2.218600 5.043000 -0.452200 1.072000 0.662500 0.071200 4.587800 -1.039200 -0.022500 0.756000 -0.597200 0.614700 -4.306400 -1.152900 -0.562500 -3.061100 0.720100 0.648300 6.587500 -4.486800 5.509300 42.722100 -67.249400 30.153900 0.000000 0.000000 11.918500 -5.628800 -5.610200 -7.451900 0.000000 0.000000 0.000000 0.000000 0.000000 0.000000 8.032800 9.045700 -7.981000 42.751000 68.292300 -32.116300 0.000000 0.000000 -7.446000 -17.783300 2.146700 12.282000 0.000000 0.000000 0.000000 0.000000 0.000000 0.000000 -6.344700 13.640200 -15.401700 21.445300 0.000000 0.000000 -10.236700 -5.863000 -8.788200 -2.980600 0.000000 0.000000 -5.493600 4.024900 6.438500 14.137800 0.000000 0.000000 -12.326600 20.191100 13.225100 9.771600 0.000000 0.000000 
0.334947 1.650360 0.952104 -3.433000 -3.854400 -4.848800 2.243500 4.997500 -0.439100 1.075700 0.638700 0.075200 4.546100 -0.993000 0.065000 0.748700 -0.600800 0.630900 -4.035000 -1.049000 -0.640500 -3.127500 0.692900 0.440200 6.853700 -4.116600 5.167800 41.898700 -68.167200 28.952500 0.000000 0.000000 12.268300 -5.989200 -5.126500 -7.324800 0.000000 0.000000 0.000000 0.000000 0.000000 0.000000 8.325500 8.653100 -7.414900 40.346600 69.858600 -29.370500 0.000000 0.000000 -7.488600 -18.494600 1.729900 12.064100 0.000000 0.000000 0.000000 0.000000 0.000000 0.000000 -6.333200 13.617700 -15.233700 21.571300 0.000000 0.000000 -10.685600 -6.068600 -9.163900 -3.900200 0.000000 0.000000 -5.517900 4.048100 6.248700 14.250600 0.000000 0.000000 -12.533700 20.043300 13.347800 9.450200 0.000000 0.000000 
0.334752 1.650525 0.951931 -3.423500 -3.810400 -4.655800 2.231600 4.926100 -0.432900 1.061100 0.597500 0.075700 4.510900 -0.968500 0.107300 0.751800 -0.588300 0.624400 -3.755800 -0.936700 -0.741700 -3.185600 0.616100 0.209500 6.759000 -4.079100 5.107400 41.987500 -68.300500 29.171900 0.000000 0.000000 12.061400 -5.543900 -4.747200 -7.729500 0.000000 0.000000 0.000000 0.000000 0.000000 0.000000 8.228800 8.603700 -7.226200 39.505900 70.275600 -28.603000 0.000000 0.000000 -6.970600 -18.030800 0.980100 12.439700 0.000000 0.000000 0.000000 0.000000 0.000000 0.000000 -6.348500 13.557400 -15.143200 21.741700 0.000000 0.000000 -11.214400 -6.387800 -9.547400 -4.743800 0.000000 0.000000 -5.668300 4.007200 5.977100 14.524300 0.000000 0.000000 -12.752000 20.009100 13.481100 9.107400 0.000000 0.000000 
0.334498 1.650776 0.951685 -3.456700 -3.766500 -4.454200 2.209100 4.866500 -0.429700 1.042300 0.567900 0.074600 4.496200 -0.968600 0.117200 0.764600 -0.573600 0.612900 -3.531100 -0.854900 -0.853300 -3.214200 0.557600 -0.006000 6.354800 -4.365700 5.362700 43.010700 -67.608200 30.670500 0.000000 0.000000 11.582700 -4.852300 -4.590300 -8.242200 0.000000 0.000000 0.000000 0.000000 0.000000 0.000000 7.818500 8.850000 -7.467500 41.477500 69.429100 -30.870900 0.000000 0.000000 -6.303600 -17.079200 0.073000 13.198700 0.000000 0.000000 0.000000 0.000000 0.000000 0.000000 -6.336100 13.521800 -15.179000 21.939200 0.000000 0.000000 -11.627700 -6.581600 -9.779000 -5.325100 0.000000 0.000000 -5.806600 3.953000 5.735100 14.827400 0.000000 0.000000 -12.892500 20.145000 13.541600 8.804900 0.000000 0.000000 
0.334254 1.651203 0.951393 -3.535200 -3.761700 -4.317900 2.200500 4.841500 -0.429500 1.035800 0.559300 0.075700 4.468300 -0.979800 0.134200 0.773100 -0.568400 0.617700 -3.391600 -0.823300 -0.949200 -3.223600 0.552500 -0.153000 5.760000 -4.860500 5.856500 44.441800 -66.229100 32.830300 0.000000 0.000000 11.261700 -4.182800 -4.610100 -8.503900 0.000000 0.000000 0.000000 0.000000 0.000000 0.000000 7.205800 9.283100 -8.031200 45.190500 67.446200 -35.027400 0.000000 0.000000 -5.976000 -16.005500 -0.604200 13.929200 0.000000 0.000000 0.000000 0.000000 0.000000 0.000000 -6.339000 13.539900 -15.236100 22.160000 0.000000 0.000000 -11.813200 -6.577000 -9.871700 -5.577900 0.000000 0.000000 -5.892100 3.936500 5.574400 15.081500 0.000000 0.000000 -12.966700 20.299400 13.566400 8.662600 0.000000 0.000000 
